<?xml version="1.0" encoding="UTF-8"?>
<svg width="160px" height="96px" viewBox="0 0 160 96" version="1.1" xmlns="http://www.w3.org/2000/svg" xmlns:xlink="http://www.w3.org/1999/xlink">
    <title>imgs03</title>
    <g id="imgs03" stroke="none" stroke-width="1" fill="none" fill-rule="evenodd">
        <rect fill="#FFFFFF" x="0" y="0" width="160" height="96"></rect>
        <path d="M156,0 C158.209139,0 160,1.790861 160,4 L160,71 C160,73.209139 158.209139,75 156,75 L4,75 C1.790861,75 0,73.209139 0,71 L0,4 C0,1.790861 1.790861,0 4,0 L156,0 Z M156,1 L4,1 C2.40231912,1 1.09633912,2.24891996 1.00509269,3.82372721 L1,4 L1,71 C1,72.5976809 2.24891996,73.9036609 3.82372721,73.9949073 L4,74 L156,74 C157.597681,74 158.903661,72.75108 158.994907,71.1762728 L159,71 L159,4 C159,2.40231912 157.75108,1.09633912 156.176273,1.00509269 L156,1 Z" id="矩形" fill="#EEEEEE" fill-rule="nonzero"></path>
        <path d="M46.38,90 L46.38,89.27 L42.63,89.27 C42.76,88.79 43.28,88.24 44.19,87.63 C44.93,87.13 45.42,86.74 45.67,86.48 C46.13,85.98 46.37,85.42 46.37,84.8 C46.37,84.18 46.15,83.67 45.73,83.29 C45.3,82.91 44.76,82.72 44.1,82.72 C43.38,82.72 42.79,82.96 42.35,83.44 C41.91,83.91 41.68,84.55 41.68,85.35 L42.5,85.35 C42.51,84.72 42.66,84.24 42.94,83.92 C43.2,83.58 43.58,83.42 44.07,83.42 C44.53,83.42 44.9,83.54 45.16,83.78 C45.42,84.02 45.55,84.35 45.55,84.79 C45.55,85.25 45.36,85.68 45,86.07 C44.81,86.27 44.44,86.56 43.88,86.96 C43.12,87.48 42.61,87.91 42.33,88.23 C41.85,88.76 41.62,89.35 41.62,90 L46.38,90 Z M55.14,90.91 C55.82,90.91 56.16,90.55 56.16,89.85 L56.16,81.9 L55.44,81.9 L55.44,89.68 C55.44,90.07 55.25,90.27 54.89,90.27 C54.49,90.27 54.06,90.25 53.62,90.22 L53.78,90.91 L55.14,90.91 Z M48.01,90.9 C50.23,89.77 51.59,87.79 52.08,84.97 L52.08,84.33 L49.7,84.33 C49.82,83.9 49.91,83.44 49.98,82.96 L52.57,82.96 L52.57,82.26 L47.72,82.26 L47.72,82.96 L49.27,82.96 C49.06,84.6 48.46,85.88 47.48,86.82 L47.82,87.49 C48.09,87.24 48.34,86.96 48.57,86.66 C49.23,87.02 49.81,87.41 50.32,87.83 C49.68,88.87 48.79,89.68 47.66,90.26 L48.01,90.9 Z M54.01,88.98 L54.01,82.66 L53.31,82.66 L53.31,88.98 L54.01,88.98 Z M50.65,87.23 C50.15,86.84 49.58,86.47 48.93,86.11 C49.13,85.77 49.31,85.41 49.47,85.01 L51.39,85.01 C51.23,85.82 50.98,86.56 50.65,87.23 Z M60.68,91.01 L60.68,90.46 L64.81,90.46 L64.81,91.01 L65.52,91.01 L65.52,86.19 L60.5,86.19 C60.92,85.53 61.27,84.79 61.57,83.97 L66.45,83.97 L66.45,83.28 L61.79,83.28 C61.92,82.83 62.03,82.36 62.13,81.87 L61.4,81.78 C61.3,82.3 61.18,82.8 61.03,83.28 L57.7,83.28 L57.7,83.97 L60.79,83.97 C60.09,85.8 58.95,87.23 57.37,88.25 L57.75,88.93 C58.59,88.4 59.33,87.74 59.96,86.95 L59.96,91.01 L60.68,91.01 Z M64.81,89.77 L60.68,89.77 L60.68,86.88 L64.81,86.88 L64.81,89.77 Z M72.47,90.95 L72.47,90.28 L75.29,90.28 L75.29,90.94 L75.99,90.94 L75.99,86.23 L73.97,86.23 L73.97,84.28 L76.48,84.28 L76.48,83.58 L73.97,83.58 L73.97,81.82 L73.23,81.82 L73.23,86.23 L71.78,86.23 L71.78,90.95 L72.47,90.95 Z M71.49,84.19 L71.49,83.49 L69.87,83.49 C69.75,82.89 69.62,82.36 69.48,81.9 L68.75,82.02 C68.91,82.46 69.06,82.95 69.18,83.49 L67.56,83.49 L67.56,84.19 L71.49,84.19 Z M67.66,90.32 C68.97,90.1 70.19,89.83 71.33,89.5 L71.33,88.8 C71,88.9 70.67,88.99 70.33,89.08 C70.65,87.77 70.88,86.35 71.04,84.81 L70.34,84.71 C70.2,86.31 69.98,87.82 69.66,89.24 C68.95,89.4 68.23,89.53 67.49,89.63 L67.66,90.32 Z M68.52,88.94 L69.12,88.79 C68.93,87.29 68.71,85.95 68.47,84.79 L67.84,84.99 C68.11,86.25 68.34,87.57 68.52,88.94 Z M75.29,89.61 L72.47,89.61 L72.47,86.86 L75.29,86.86 L75.29,89.61 Z M85.79,83.29 L85.79,82.59 L78.23,82.59 L78.23,83.29 L85.79,83.29 Z M85.11,86.75 L85.11,86.05 L78.9,86.05 L78.9,86.75 L85.11,86.75 Z M86.51,90.47 L86.51,89.75 L77.49,89.75 L77.49,90.47 L86.51,90.47 Z M96.05,86.13 L96.53,85.56 C95.04,84.67 94.01,83.45 93.43,81.91 L92.81,82.26 C93.42,83.84 94.5,85.13 96.05,86.13 Z M87.83,86.17 C88.66,85.61 89.33,85.04 89.83,84.46 C90.3,83.93 90.77,83.25 91.24,82.42 L90.61,82.04 C90.21,82.8 89.77,83.45 89.29,84.01 C88.74,84.64 88.12,85.15 87.44,85.54 L87.83,86.17 Z M88.37,91.03 C89.39,90.46 90.16,89.82 90.67,89.1 C91.1,88.46 91.43,87.59 91.67,86.5 L94.16,86.5 C94.11,88.06 94,89.07 93.82,89.55 C93.65,90.01 93.3,90.24 92.76,90.24 C92.24,90.24 91.69,90.23 91.11,90.21 L91.31,90.92 L93.13,90.92 C93.63,90.89 93.99,90.73 94.21,90.44 C94.44,90.14 94.6,89.6 94.7,88.84 C94.8,88.07 94.86,87.06 94.89,85.81 L88.92,85.81 L88.92,86.5 L90.94,86.5 C90.73,87.44 90.42,88.2 90,88.78 C89.53,89.38 88.83,89.93 87.91,90.43 L88.37,91.03 Z M98.24,90.97 C98.8,89.85 99.22,89.3 99.49,89.3 C99.63,89.3 99.8,89.41 99.99,89.63 C100.56,90.35 101.38,90.71 102.44,90.73 C102.777778,90.7477778 103.313086,90.7576543 104.045926,90.7596296 L106.25,90.76 L106.42,90.04 C105.584444,90.0666667 104.914815,90.0854321 104.404088,90.089273 L104.22,90.09 C103.36,90.09 102.69,90.08 102.23,90.06 C101.54,90 100.98,89.73 100.55,89.25 L100.48,89.18 C102.73,88.02 104.44,86.33 105.6,84.12 L105.6,83.58 L102.48,83.58 C102.19,82.91 101.89,82.31 101.58,81.79 L100.76,81.93 C101.12,82.43 101.43,82.98 101.7,83.58 L98.26,83.58 L98.26,84.28 L104.72,84.28 C103.62,86.14 102.03,87.61 99.95,88.7 L99.85,88.64 C99.76,88.58 99.65,88.55 99.51,88.55 C98.93,88.55 98.32,89.22 97.66,90.57 L98.24,90.97 Z M115.55,83.65 L115.55,82.94 L108.45,82.94 L108.45,83.65 L115.55,83.65 Z M116.46,89.96 L116.46,89.23 L107.53,89.23 L107.53,89.96 L116.46,89.96 Z" id="2列右站三分之二" fill="#000000" fill-rule="nonzero"></path>
        <rect id="矩形" fill="#DDDDDD" x="29" y="13" width="32" height="49"></rect>
        <rect id="矩形" fill="#DDDDDD" x="63" y="13" width="66" height="49"></rect>
        <path d="M45.435,42 L45.435,34.86 L44.795,34.86 C44.555,35.13 44.275,35.37 43.935,35.59 C43.595,35.79 43.255,35.93 42.935,36.02 L42.935,36.84 C43.605,36.64 44.165,36.32 44.615,35.86 L44.615,42 L45.435,42 Z" id="1" fill="#000000" fill-rule="nonzero"></path>
        <path d="M98.38,42 L98.38,41.27 L94.63,41.27 C94.76,40.79 95.28,40.24 96.19,39.63 C96.93,39.13 97.42,38.74 97.67,38.48 C98.13,37.98 98.37,37.42 98.37,36.8 C98.37,36.18 98.15,35.67 97.73,35.29 C97.3,34.91 96.76,34.72 96.1,34.72 C95.38,34.72 94.79,34.96 94.35,35.44 C93.91,35.91 93.68,36.55 93.68,37.35 L94.5,37.35 C94.51,36.72 94.66,36.24 94.94,35.92 C95.2,35.58 95.58,35.42 96.07,35.42 C96.53,35.42 96.9,35.54 97.16,35.78 C97.42,36.02 97.55,36.35 97.55,36.79 C97.55,37.25 97.36,37.68 97,38.07 C96.81,38.27 96.44,38.56 95.88,38.96 C95.12,39.48 94.61,39.91 94.33,40.23 C93.85,40.76 93.62,41.35 93.62,42 L98.38,42 Z" id="2" fill="#000000" fill-rule="nonzero"></path>
    </g>
</svg>