<?xml version="1.0" encoding="UTF-8"?>
<svg width="160px" height="96px" viewBox="0 0 160 96" version="1.1" xmlns="http://www.w3.org/2000/svg" xmlns:xlink="http://www.w3.org/1999/xlink">
    <title>imgs07</title>
    <g id="imgs07" stroke="none" stroke-width="1" fill="none" fill-rule="evenodd">
        <rect fill="#FFFFFF" x="0" y="0" width="160" height="96"></rect>
        <path d="M156,0 C158.209139,0 160,1.790861 160,4 L160,71 C160,73.209139 158.209139,75 156,75 L4,75 C1.790861,75 0,73.209139 0,71 L0,4 C0,1.790861 1.790861,0 4,0 L156,0 Z M156,1 L4,1 C2.40231912,1 1.09633912,2.24891996 1.00509269,3.82372721 L1,4 L1,71 C1,72.5976809 2.24891996,73.9036609 3.82372721,73.9949073 L4,74 L156,74 C157.597681,74 158.903661,72.75108 158.994907,71.1762728 L159,71 L159,4 C159,2.40231912 157.75108,1.09633912 156.176273,1.00509269 L156,1 Z" id="矩形" fill="#EEEEEE" fill-rule="nonzero"></path>
        <path d="M45.455,90.71 L45.455,90.01 L42.205,90.01 L42.205,86.96 L44.645,86.96 L44.645,86.27 L39.525,86.27 C39.825,85.57 40.095,84.81 40.315,83.98 L45.445,83.98 L45.445,83.28 L40.485,83.28 C40.585,82.84 40.665,82.37 40.745,81.88 L40.025,81.79 C39.945,82.3 39.855,82.8 39.745,83.28 L36.715,83.28 L36.715,83.98 L39.575,83.98 C38.955,86.25 37.915,88.01 36.455,89.25 L36.825,89.91 C37.765,89.16 38.555,88.18 39.195,86.96 L41.475,86.96 L41.475,90.01 L38.165,90.01 L38.165,90.71 L45.455,90.71 Z M51.375,90 L51.375,89.27 L47.625,89.27 C47.755,88.79 48.275,88.24 49.185,87.63 C49.925,87.13 50.415,86.74 50.665,86.48 C51.125,85.98 51.365,85.42 51.365,84.8 C51.365,84.18 51.145,83.67 50.725,83.29 C50.295,82.91 49.755,82.72 49.095,82.72 C48.375,82.72 47.785,82.96 47.345,83.44 C46.905,83.91 46.675,84.55 46.675,85.35 L47.495,85.35 C47.505,84.72 47.655,84.24 47.935,83.92 C48.195,83.58 48.575,83.42 49.065,83.42 C49.525,83.42 49.895,83.54 50.155,83.78 C50.415,84.02 50.545,84.35 50.545,84.79 C50.545,85.25 50.355,85.68 49.995,86.07 C49.805,86.27 49.435,86.56 48.875,86.96 C48.115,87.48 47.605,87.91 47.325,88.23 C46.845,88.76 46.615,89.35 46.615,90 L51.375,90 Z M55.675,91.01 L55.675,90.46 L59.805,90.46 L59.805,91.01 L60.515,91.01 L60.515,86.19 L55.495,86.19 C55.915,85.53 56.265,84.79 56.565,83.97 L61.445,83.97 L61.445,83.28 L56.785,83.28 C56.915,82.83 57.025,82.36 57.125,81.87 L56.395,81.78 C56.295,82.3 56.175,82.8 56.025,83.28 L52.695,83.28 L52.695,83.97 L55.785,83.97 C55.085,85.8 53.945,87.23 52.365,88.25 L52.745,88.93 C53.585,88.4 54.325,87.74 54.955,86.95 L54.955,91.01 L55.675,91.01 Z M59.805,89.77 L55.675,89.77 L55.675,86.88 L59.805,86.88 L59.805,89.77 Z M64.935,90 L64.935,82.86 L64.295,82.86 C64.055,83.13 63.775,83.37 63.435,83.59 C63.095,83.79 62.755,83.93 62.435,84.02 L62.435,84.84 C63.105,84.64 63.665,84.32 64.115,83.86 L64.115,90 L64.935,90 Z M68.615,83.97 L69.125,83.46 C68.605,82.97 67.975,82.48 67.225,81.99 L66.715,82.48 C67.515,83.01 68.155,83.51 68.615,83.97 Z M74.575,85.91 L74.575,82.2 L69.605,82.2 L69.605,85.91 L74.575,85.91 Z M73.885,83.76 L70.285,83.76 L70.285,82.8 L73.885,82.8 L73.885,83.76 Z M73.885,85.31 L70.285,85.31 L70.285,84.35 L73.885,84.35 L73.885,85.31 Z M68.195,86.31 L68.705,85.8 C68.235,85.33 67.655,84.86 66.975,84.4 L66.465,84.89 C67.195,85.39 67.775,85.87 68.195,86.31 Z M69.385,90.89 C70.395,90.75 71.275,90.58 72.015,90.39 L71.885,89.75 C71.405,89.88 70.855,90 70.215,90.12 L70.215,88.15 L71.985,88.15 L71.985,87.51 L70.215,87.51 L70.215,86.38 L69.535,86.38 L69.535,89.81 C69.535,90.03 69.415,90.19 69.195,90.28 L69.385,90.89 Z M74.435,90.86 C74.775,90.86 75.025,90.79 75.185,90.65 C75.365,90.47 75.485,89.99 75.555,89.19 L74.925,89 C74.885,89.58 74.815,89.94 74.715,90.06 C74.635,90.16 74.505,90.21 74.315,90.21 L73.565,90.21 C73.265,90.21 73.115,90.09 73.115,89.87 L73.115,88.17 C73.935,88.02 74.665,87.8 75.305,87.5 L75.075,86.89 C74.495,87.18 73.845,87.4 73.115,87.54 L73.115,86.39 L72.435,86.39 L72.435,90.01 C72.435,90.57 72.745,90.86 73.365,90.86 L74.435,90.86 Z M67.265,90.9 C67.835,89.78 68.355,88.59 68.825,87.32 L68.205,87.08 C67.745,88.28 67.195,89.45 66.565,90.59 L67.265,90.9 Z M81.895,91 L81.895,81.84 L81.205,81.84 L81.205,83.44 L79.635,83.44 L79.635,84.09 L81.205,84.09 L81.205,85.75 L79.795,85.75 L79.795,86.41 L81.205,86.41 L81.205,88.14 L79.235,88.14 L79.235,88.8 L81.205,88.8 L81.205,91 L81.895,91 Z M83.785,91 L83.785,88.8 L85.565,88.8 L85.565,88.14 L83.785,88.14 L83.785,86.41 L85.285,86.41 L85.285,85.75 L83.785,85.75 L83.785,84.09 L85.495,84.09 L85.495,83.44 L83.785,83.44 L83.785,81.84 L83.085,81.84 L83.085,91 L83.785,91 Z M77.555,90.91 C78.135,90.91 78.435,90.63 78.435,90.07 L78.435,87.2 C78.765,87.05 79.085,86.89 79.405,86.72 L79.405,85.98 C79.085,86.16 78.765,86.32 78.435,86.48 L78.435,84.44 L79.325,84.44 L79.325,83.75 L78.435,83.75 L78.435,81.86 L77.735,81.86 L77.735,83.75 L76.655,83.75 L76.655,84.44 L77.735,84.44 L77.735,86.77 C77.315,86.93 76.895,87.06 76.465,87.17 L76.635,87.9 C77.005,87.78 77.375,87.64 77.735,87.5 L77.735,89.89 C77.735,90.13 77.585,90.25 77.305,90.25 C77.045,90.25 76.765,90.23 76.475,90.21 L76.635,90.91 L77.555,90.91 Z M91.385,90 L91.385,89.27 L87.635,89.27 C87.765,88.79 88.285,88.24 89.195,87.63 C89.935,87.13 90.425,86.74 90.675,86.48 C91.135,85.98 91.375,85.42 91.375,84.8 C91.375,84.18 91.155,83.67 90.735,83.29 C90.305,82.91 89.765,82.72 89.105,82.72 C88.385,82.72 87.795,82.96 87.355,83.44 C86.915,83.91 86.685,84.55 86.685,85.35 L87.505,85.35 C87.515,84.72 87.665,84.24 87.945,83.92 C88.205,83.58 88.585,83.42 89.075,83.42 C89.535,83.42 89.905,83.54 90.165,83.78 C90.425,84.02 90.555,84.35 90.555,84.79 C90.555,85.25 90.365,85.68 90.005,86.07 C89.815,86.27 89.445,86.56 88.885,86.96 C88.125,87.48 87.615,87.91 87.335,88.23 C86.855,88.76 86.625,89.35 86.625,90 L91.385,90 Z M100.145,90.91 C100.825,90.91 101.165,90.55 101.165,89.85 L101.165,81.9 L100.445,81.9 L100.445,89.68 C100.445,90.07 100.255,90.27 99.895,90.27 C99.495,90.27 99.065,90.25 98.625,90.22 L98.785,90.91 L100.145,90.91 Z M93.015,90.9 C95.235,89.77 96.595,87.79 97.085,84.97 L97.085,84.33 L94.705,84.33 C94.825,83.9 94.915,83.44 94.985,82.96 L97.575,82.96 L97.575,82.26 L92.725,82.26 L92.725,82.96 L94.275,82.96 C94.065,84.6 93.465,85.88 92.485,86.82 L92.825,87.49 C93.095,87.24 93.345,86.96 93.575,86.66 C94.235,87.02 94.815,87.41 95.325,87.83 C94.685,88.87 93.795,89.68 92.665,90.26 L93.015,90.9 Z M99.015,88.98 L99.015,82.66 L98.315,82.66 L98.315,88.98 L99.015,88.98 Z M95.655,87.23 C95.155,86.84 94.585,86.47 93.935,86.11 C94.135,85.77 94.315,85.41 94.475,85.01 L96.395,85.01 C96.235,85.82 95.985,86.56 95.655,87.23 Z M109.565,90.92 C110.435,90.92 110.925,90.51 111.035,89.7 C111.155,88.91 111.215,86.79 111.215,83.35 L107.555,83.35 C107.725,82.88 107.865,82.38 107.975,81.86 L107.255,81.77 C106.955,83.19 106.375,84.4 105.525,85.39 L106.005,86.01 C106.505,85.43 106.925,84.78 107.265,84.05 L110.515,84.05 C110.495,87.08 110.445,88.88 110.345,89.46 C110.255,89.98 109.955,90.24 109.435,90.24 C109.035,90.24 108.565,90.22 108.025,90.2 L108.205,90.88 C108.845,90.9 109.295,90.92 109.565,90.92 Z M102.565,89.76 C103.685,89.52 104.735,89.21 105.705,88.84 L105.705,88.09 C105.245,88.27 104.785,88.42 104.305,88.56 L104.305,85.19 L105.335,85.19 L105.335,84.49 L104.305,84.49 L104.305,81.87 L103.575,81.87 L103.575,84.49 L102.475,84.49 L102.475,85.19 L103.575,85.19 L103.575,88.75 C103.185,88.85 102.785,88.93 102.365,89 L102.565,89.76 Z M108.615,86.97 L109.115,86.47 C108.685,86.01 108.155,85.54 107.515,85.08 L107.055,85.53 C107.715,86.04 108.235,86.52 108.615,86.97 Z M106.515,89.43 C107.785,88.98 108.845,88.46 109.705,87.87 L109.515,87.2 C108.595,87.81 107.495,88.33 106.215,88.75 L106.515,89.43 Z M121.055,86.13 L121.535,85.56 C120.045,84.67 119.015,83.45 118.435,81.91 L117.815,82.26 C118.425,83.84 119.505,85.13 121.055,86.13 Z M112.835,86.17 C113.665,85.61 114.335,85.04 114.835,84.46 C115.305,83.93 115.775,83.25 116.245,82.42 L115.615,82.04 C115.215,82.8 114.775,83.45 114.295,84.01 C113.745,84.64 113.125,85.15 112.445,85.54 L112.835,86.17 Z M113.375,91.03 C114.395,90.46 115.165,89.82 115.675,89.1 C116.105,88.46 116.435,87.59 116.675,86.5 L119.165,86.5 C119.115,88.06 119.005,89.07 118.825,89.55 C118.655,90.01 118.305,90.24 117.765,90.24 C117.245,90.24 116.695,90.23 116.115,90.21 L116.315,90.92 L118.135,90.92 C118.635,90.89 118.995,90.73 119.215,90.44 C119.445,90.14 119.605,89.6 119.705,88.84 C119.805,88.07 119.865,87.06 119.895,85.81 L113.925,85.81 L113.925,86.5 L115.945,86.5 C115.735,87.44 115.425,88.2 115.005,88.78 C114.535,89.38 113.835,89.93 112.915,90.43 L113.375,91.03 Z" id="左2右1混排2列均分" fill="#000000" fill-rule="nonzero"></path>
        <g id="编组-3" transform="translate(81.000000, 13.000000)">
            <rect id="矩形" fill="#DDDDDD" x="0" y="0" width="49" height="49"></rect>
            <text id="3" font-family="PingFangSC-Regular, PingFang SC" font-size="10" font-weight="normal" fill="#000000">
                <tspan x="21.5" y="29">3</tspan>
            </text>
        </g>
        <g id="编组-2" transform="translate(29.000000, 13.000000)">
            <g id="编组" transform="translate(25.000000, 25.500000) rotate(90.000000) translate(-25.000000, -25.500000) translate(0.000000, 1.000000)" fill="#DDDDDD">
                <rect id="矩形" x="0" y="0" width="23.5" height="49"></rect>
                <rect id="矩形" x="25.6666667" y="0" width="23.5" height="49"></rect>
            </g>
            <text id="1" font-family="PingFangSC-Regular, PingFang SC" font-size="10" font-weight="normal" fill="#000000">
                <tspan x="22.6616667" y="14.5">1</tspan>
            </text>
            <text id="2" font-family="PingFangSC-Regular, PingFang SC" font-size="10" font-weight="normal" fill="#000000">
                <tspan x="21.6666667" y="42.5">2</tspan>
            </text>
        </g>
    </g>
</svg>