<?xml version="1.0" encoding="UTF-8"?>
<svg width="160px" height="96px" viewBox="0 0 160 96" version="1.1" xmlns="http://www.w3.org/2000/svg" xmlns:xlink="http://www.w3.org/1999/xlink">
    <title>imgs04</title>
    <g id="imgs04" stroke="none" stroke-width="1" fill="none" fill-rule="evenodd">
        <rect fill="#FFFFFF" x="0" y="0" width="160" height="96"></rect>
        <path d="M156,0 C158.209139,0 160,1.790861 160,4 L160,71 C160,73.209139 158.209139,75 156,75 L4,75 C1.790861,75 0,73.209139 0,71 L0,4 C0,1.790861 1.790861,0 4,0 L156,0 Z M156,1 L4,1 C2.40231912,1 1.09633912,2.24891996 1.00509269,3.82372721 L1,4 L1,71 C1,72.5976809 2.24891996,73.9036609 3.82372721,73.9949073 L4,74 L156,74 C157.597681,74 158.903661,72.75108 158.994907,71.1762728 L159,71 L159,4 C159,2.40231912 157.75108,1.09633912 156.176273,1.00509269 L156,1 Z" id="矩形" fill="#EEEEEE" fill-rule="nonzero"></path>
        <path d="M64.02,90.14 C64.76,90.14 65.36,89.93 65.82,89.51 C66.27,89.1 66.5,88.57 66.5,87.92 C66.5,87.5 66.38,87.15 66.14,86.87 C65.92,86.59 65.6,86.39 65.18,86.26 C65.96,86 66.35,85.46 66.35,84.66 C66.35,84.06 66.14,83.59 65.73,83.24 C65.31,82.89 64.75,82.72 64.07,82.72 C63.39,82.72 62.84,82.91 62.42,83.3 C61.98,83.69 61.72,84.23 61.66,84.92 L62.47,84.92 C62.52,84.44 62.68,84.07 62.96,83.81 C63.23,83.55 63.6,83.43 64.08,83.43 C64.54,83.43 64.91,83.54 65.17,83.78 C65.41,84 65.54,84.31 65.54,84.71 C65.54,85.11 65.41,85.42 65.16,85.64 C64.91,85.85 64.55,85.96 64.07,85.96 L63.52,85.96 L63.52,86.6 L64.1,86.6 C64.6,86.6 64.98,86.71 65.26,86.95 C65.54,87.19 65.68,87.52 65.68,87.95 C65.68,88.37 65.53,88.72 65.25,89 C64.94,89.29 64.53,89.44 64.02,89.44 C63.57,89.44 63.2,89.31 62.9,89.07 C62.55,88.78 62.36,88.35 62.34,87.79 L61.51,87.79 C61.57,88.59 61.85,89.2 62.36,89.62 C62.79,89.96 63.34,90.14 64.02,90.14 Z M75.14,90.91 C75.82,90.91 76.16,90.55 76.16,89.85 L76.16,81.9 L75.44,81.9 L75.44,89.68 C75.44,90.07 75.25,90.27 74.89,90.27 C74.49,90.27 74.06,90.25 73.62,90.22 L73.78,90.91 L75.14,90.91 Z M68.01,90.9 C70.23,89.77 71.59,87.79 72.08,84.97 L72.08,84.33 L69.7,84.33 C69.82,83.9 69.91,83.44 69.98,82.96 L72.57,82.96 L72.57,82.26 L67.72,82.26 L67.72,82.96 L69.27,82.96 C69.06,84.6 68.46,85.88 67.48,86.82 L67.82,87.49 C68.09,87.24 68.34,86.96 68.57,86.66 C69.23,87.02 69.81,87.41 70.32,87.83 C69.68,88.87 68.79,89.68 67.66,90.26 L68.01,90.9 Z M74.01,88.98 L74.01,82.66 L73.31,82.66 L73.31,88.98 L74.01,88.98 Z M70.65,87.23 C70.15,86.84 69.58,86.47 68.93,86.11 C69.13,85.77 69.31,85.41 69.47,85.01 L71.39,85.01 C71.23,85.82 70.98,86.56 70.65,87.23 Z M84.56,90.92 C85.43,90.92 85.92,90.51 86.03,89.7 C86.15,88.91 86.21,86.79 86.21,83.35 L82.55,83.35 C82.72,82.88 82.86,82.38 82.97,81.86 L82.25,81.77 C81.95,83.19 81.37,84.4 80.52,85.39 L81,86.01 C81.5,85.43 81.92,84.78 82.26,84.05 L85.51,84.05 C85.49,87.08 85.44,88.88 85.34,89.46 C85.25,89.98 84.95,90.24 84.43,90.24 C84.03,90.24 83.56,90.22 83.02,90.2 L83.2,90.88 C83.84,90.9 84.29,90.92 84.56,90.92 Z M77.56,89.76 C78.68,89.52 79.73,89.21 80.7,88.84 L80.7,88.09 C80.24,88.27 79.78,88.42 79.3,88.56 L79.3,85.19 L80.33,85.19 L80.33,84.49 L79.3,84.49 L79.3,81.87 L78.57,81.87 L78.57,84.49 L77.47,84.49 L77.47,85.19 L78.57,85.19 L78.57,88.75 C78.18,88.85 77.78,88.93 77.36,89 L77.56,89.76 Z M83.61,86.97 L84.11,86.47 C83.68,86.01 83.15,85.54 82.51,85.08 L82.05,85.53 C82.71,86.04 83.23,86.52 83.61,86.97 Z M81.51,89.43 C82.78,88.98 83.84,88.46 84.7,87.87 L84.51,87.2 C83.59,87.81 82.49,88.33 81.21,88.75 L81.51,89.43 Z M96.05,86.13 L96.53,85.56 C95.04,84.67 94.01,83.45 93.43,81.91 L92.81,82.26 C93.42,83.84 94.5,85.13 96.05,86.13 Z M87.83,86.17 C88.66,85.61 89.33,85.04 89.83,84.46 C90.3,83.93 90.77,83.25 91.24,82.42 L90.61,82.04 C90.21,82.8 89.77,83.45 89.29,84.01 C88.74,84.64 88.12,85.15 87.44,85.54 L87.83,86.17 Z M88.37,91.03 C89.39,90.46 90.16,89.82 90.67,89.1 C91.1,88.46 91.43,87.59 91.67,86.5 L94.16,86.5 C94.11,88.06 94,89.07 93.82,89.55 C93.65,90.01 93.3,90.24 92.76,90.24 C92.24,90.24 91.69,90.23 91.11,90.21 L91.31,90.92 L93.13,90.92 C93.63,90.89 93.99,90.73 94.21,90.44 C94.44,90.14 94.6,89.6 94.7,88.84 C94.8,88.07 94.86,87.06 94.89,85.81 L88.92,85.81 L88.92,86.5 L90.94,86.5 C90.73,87.44 90.42,88.2 90,88.78 C89.53,89.38 88.83,89.93 87.91,90.43 L88.37,91.03 Z" id="3列均分" fill="#000000" fill-rule="nonzero"></path>
        <rect id="矩形" fill="#DDDDDD" x="29" y="13" width="32" height="49"></rect>
        <rect id="矩形" fill="#DDDDDD" x="63" y="13" width="32" height="49"></rect>
        <rect id="矩形" fill="#DDDDDD" x="97" y="13" width="32" height="49"></rect>
        <path d="M46.435,41 L46.435,33.86 L45.795,33.86 C45.555,34.13 45.275,34.37 44.935,34.59 C44.595,34.79 44.255,34.93 43.935,35.02 L43.935,35.84 C44.605,35.64 45.165,35.32 45.615,34.86 L45.615,41 L46.435,41 Z" id="1" fill="#000000" fill-rule="nonzero"></path>
        <path d="M81.38,41 L81.38,40.27 L77.63,40.27 C77.76,39.79 78.28,39.24 79.19,38.63 C79.93,38.13 80.42,37.74 80.67,37.48 C81.13,36.98 81.37,36.42 81.37,35.8 C81.37,35.18 81.15,34.67 80.73,34.29 C80.3,33.91 79.76,33.72 79.1,33.72 C78.38,33.72 77.79,33.96 77.35,34.44 C76.91,34.91 76.68,35.55 76.68,36.35 L77.5,36.35 C77.51,35.72 77.66,35.24 77.94,34.92 C78.2,34.58 78.58,34.42 79.07,34.42 C79.53,34.42 79.9,34.54 80.16,34.78 C80.42,35.02 80.55,35.35 80.55,35.79 C80.55,36.25 80.36,36.68 80,37.07 C79.81,37.27 79.44,37.56 78.88,37.96 C78.12,38.48 77.61,38.91 77.33,39.23 C76.85,39.76 76.62,40.35 76.62,41 L81.38,41 Z" id="2" fill="#000000" fill-rule="nonzero"></path>
        <path d="M113.02,41.14 C113.76,41.14 114.36,40.93 114.82,40.51 C115.27,40.1 115.5,39.57 115.5,38.92 C115.5,38.5 115.38,38.15 115.14,37.87 C114.92,37.59 114.6,37.39 114.18,37.26 C114.96,37 115.35,36.46 115.35,35.66 C115.35,35.06 115.14,34.59 114.73,34.24 C114.31,33.89 113.75,33.72 113.07,33.72 C112.39,33.72 111.84,33.91 111.42,34.3 C110.98,34.69 110.72,35.23 110.66,35.92 L111.47,35.92 C111.52,35.44 111.68,35.07 111.96,34.81 C112.23,34.55 112.6,34.43 113.08,34.43 C113.54,34.43 113.91,34.54 114.17,34.78 C114.41,35 114.54,35.31 114.54,35.71 C114.54,36.11 114.41,36.42 114.16,36.64 C113.91,36.85 113.55,36.96 113.07,36.96 L112.52,36.96 L112.52,37.6 L113.1,37.6 C113.6,37.6 113.98,37.71 114.26,37.95 C114.54,38.19 114.68,38.52 114.68,38.95 C114.68,39.37 114.53,39.72 114.25,40 C113.94,40.29 113.53,40.44 113.02,40.44 C112.57,40.44 112.2,40.31 111.9,40.07 C111.55,39.78 111.36,39.35 111.34,38.79 L110.51,38.79 C110.57,39.59 110.85,40.2 111.36,40.62 C111.79,40.96 112.34,41.14 113.02,41.14 Z" id="3" fill="#000000" fill-rule="nonzero"></path>
    </g>
</svg>