<?xml version="1.0" encoding="UTF-8"?>
<svg width="160px" height="96px" viewBox="0 0 160 96" version="1.1" xmlns="http://www.w3.org/2000/svg" xmlns:xlink="http://www.w3.org/1999/xlink">
    <title>imgs08</title>
    <g id="imgs08" stroke="none" stroke-width="1" fill="none" fill-rule="evenodd">
        <rect fill="#FFFFFF" x="0" y="0" width="160" height="96"></rect>
        <path d="M156,0 C158.209139,0 160,1.790861 160,4 L160,71 C160,73.209139 158.209139,75 156,75 L4,75 C1.790861,75 0,73.209139 0,71 L0,4 C0,1.790861 1.790861,0 4,0 L156,0 Z M156,1 L4,1 C2.40231912,1 1.09633912,2.24891996 1.00509269,3.82372721 L1,4 L1,71 C1,72.5976809 2.24891996,73.9036609 3.82372721,73.9949073 L4,74 L156,74 C157.597681,74 158.903661,72.75108 158.994907,71.1762728 L159,71 L159,4 C159,2.40231912 157.75108,1.09633912 156.176273,1.00509269 L156,1 Z" id="矩形" fill="#EEEEEE" fill-rule="nonzero"></path>
        <path d="M44.46,90.71 L44.46,90.01 L41.21,90.01 L41.21,86.96 L43.65,86.96 L43.65,86.27 L38.53,86.27 C38.83,85.57 39.1,84.81 39.32,83.98 L44.45,83.98 L44.45,83.28 L39.49,83.28 C39.59,82.84 39.67,82.37 39.75,81.88 L39.03,81.79 C38.95,82.3 38.86,82.8 38.75,83.28 L35.72,83.28 L35.72,83.98 L38.58,83.98 C37.96,86.25 36.92,88.01 35.46,89.25 L35.83,89.91 C36.77,89.16 37.56,88.18 38.2,86.96 L40.48,86.96 L40.48,90.01 L37.17,90.01 L37.17,90.71 L44.46,90.71 Z M50.38,90 L50.38,89.27 L46.63,89.27 C46.76,88.79 47.28,88.24 48.19,87.63 C48.93,87.13 49.42,86.74 49.67,86.48 C50.13,85.98 50.37,85.42 50.37,84.8 C50.37,84.18 50.15,83.67 49.73,83.29 C49.3,82.91 48.76,82.72 48.1,82.72 C47.38,82.72 46.79,82.96 46.35,83.44 C45.91,83.91 45.68,84.55 45.68,85.35 L46.5,85.35 C46.51,84.72 46.66,84.24 46.94,83.92 C47.2,83.58 47.58,83.42 48.07,83.42 C48.53,83.42 48.9,83.54 49.16,83.78 C49.42,84.02 49.55,84.35 49.55,84.79 C49.55,85.25 49.36,85.68 49,86.07 C48.81,86.27 48.44,86.56 47.88,86.96 C47.12,87.48 46.61,87.91 46.33,88.23 C45.85,88.76 45.62,89.35 45.62,90 L50.38,90 Z M54.68,91.01 L54.68,90.46 L58.81,90.46 L58.81,91.01 L59.52,91.01 L59.52,86.19 L54.5,86.19 C54.92,85.53 55.27,84.79 55.57,83.97 L60.45,83.97 L60.45,83.28 L55.79,83.28 C55.92,82.83 56.03,82.36 56.13,81.87 L55.4,81.78 C55.3,82.3 55.18,82.8 55.03,83.28 L51.7,83.28 L51.7,83.97 L54.79,83.97 C54.09,85.8 52.95,87.23 51.37,88.25 L51.75,88.93 C52.59,88.4 53.33,87.74 53.96,86.95 L53.96,91.01 L54.68,91.01 Z M58.81,89.77 L54.68,89.77 L54.68,86.88 L58.81,86.88 L58.81,89.77 Z M66.38,90 L66.38,89.27 L62.63,89.27 C62.76,88.79 63.28,88.24 64.19,87.63 C64.93,87.13 65.42,86.74 65.67,86.48 C66.13,85.98 66.37,85.42 66.37,84.8 C66.37,84.18 66.15,83.67 65.73,83.29 C65.3,82.91 64.76,82.72 64.1,82.72 C63.38,82.72 62.79,82.96 62.35,83.44 C61.91,83.91 61.68,84.55 61.68,85.35 L62.5,85.35 C62.51,84.72 62.66,84.24 62.94,83.92 C63.2,83.58 63.58,83.42 64.07,83.42 C64.53,83.42 64.9,83.54 65.16,83.78 C65.42,84.02 65.55,84.35 65.55,84.79 C65.55,85.25 65.36,85.68 65,86.07 C64.81,86.27 64.44,86.56 63.88,86.96 C63.12,87.48 62.61,87.91 62.33,88.23 C61.85,88.76 61.62,89.35 61.62,90 L66.38,90 Z M69.61,83.97 L70.12,83.46 C69.6,82.97 68.97,82.48 68.22,81.99 L67.71,82.48 C68.51,83.01 69.15,83.51 69.61,83.97 Z M75.57,85.91 L75.57,82.2 L70.6,82.2 L70.6,85.91 L75.57,85.91 Z M74.88,83.76 L71.28,83.76 L71.28,82.8 L74.88,82.8 L74.88,83.76 Z M74.88,85.31 L71.28,85.31 L71.28,84.35 L74.88,84.35 L74.88,85.31 Z M69.19,86.31 L69.7,85.8 C69.23,85.33 68.65,84.86 67.97,84.4 L67.46,84.89 C68.19,85.39 68.77,85.87 69.19,86.31 Z M70.38,90.89 C71.39,90.75 72.27,90.58 73.01,90.39 L72.88,89.75 C72.4,89.88 71.85,90 71.21,90.12 L71.21,88.15 L72.98,88.15 L72.98,87.51 L71.21,87.51 L71.21,86.38 L70.53,86.38 L70.53,89.81 C70.53,90.03 70.41,90.19 70.19,90.28 L70.38,90.89 Z M75.43,90.86 C75.77,90.86 76.02,90.79 76.18,90.65 C76.36,90.47 76.48,89.99 76.55,89.19 L75.92,89 C75.88,89.58 75.81,89.94 75.71,90.06 C75.63,90.16 75.5,90.21 75.31,90.21 L74.56,90.21 C74.26,90.21 74.11,90.09 74.11,89.87 L74.11,88.17 C74.93,88.02 75.66,87.8 76.3,87.5 L76.07,86.89 C75.49,87.18 74.84,87.4 74.11,87.54 L74.11,86.39 L73.43,86.39 L73.43,90.01 C73.43,90.57 73.74,90.86 74.36,90.86 L75.43,90.86 Z M68.26,90.9 C68.83,89.78 69.35,88.59 69.82,87.32 L69.2,87.08 C68.74,88.28 68.19,89.45 67.56,90.59 L68.26,90.9 Z M82.89,91 L82.89,81.84 L82.2,81.84 L82.2,83.44 L80.63,83.44 L80.63,84.09 L82.2,84.09 L82.2,85.75 L80.79,85.75 L80.79,86.41 L82.2,86.41 L82.2,88.14 L80.23,88.14 L80.23,88.8 L82.2,88.8 L82.2,91 L82.89,91 Z M84.78,91 L84.78,88.8 L86.56,88.8 L86.56,88.14 L84.78,88.14 L84.78,86.41 L86.28,86.41 L86.28,85.75 L84.78,85.75 L84.78,84.09 L86.49,84.09 L86.49,83.44 L84.78,83.44 L84.78,81.84 L84.08,81.84 L84.08,91 L84.78,91 Z M78.55,90.91 C79.13,90.91 79.43,90.63 79.43,90.07 L79.43,87.2 C79.76,87.05 80.08,86.89 80.4,86.72 L80.4,85.98 C80.08,86.16 79.76,86.32 79.43,86.48 L79.43,84.44 L80.32,84.44 L80.32,83.75 L79.43,83.75 L79.43,81.86 L78.73,81.86 L78.73,83.75 L77.65,83.75 L77.65,84.44 L78.73,84.44 L78.73,86.77 C78.31,86.93 77.89,87.06 77.46,87.17 L77.63,87.9 C78,87.78 78.37,87.64 78.73,87.5 L78.73,89.89 C78.73,90.13 78.58,90.25 78.3,90.25 C78.04,90.25 77.76,90.23 77.47,90.21 L77.63,90.91 L78.55,90.91 Z M92.38,90 L92.38,89.27 L88.63,89.27 C88.76,88.79 89.28,88.24 90.19,87.63 C90.93,87.13 91.42,86.74 91.67,86.48 C92.13,85.98 92.37,85.42 92.37,84.8 C92.37,84.18 92.15,83.67 91.73,83.29 C91.3,82.91 90.76,82.72 90.1,82.72 C89.38,82.72 88.79,82.96 88.35,83.44 C87.91,83.91 87.68,84.55 87.68,85.35 L88.5,85.35 C88.51,84.72 88.66,84.24 88.94,83.92 C89.2,83.58 89.58,83.42 90.07,83.42 C90.53,83.42 90.9,83.54 91.16,83.78 C91.42,84.02 91.55,84.35 91.55,84.79 C91.55,85.25 91.36,85.68 91,86.07 C90.81,86.27 90.44,86.56 89.88,86.96 C89.12,87.48 88.61,87.91 88.33,88.23 C87.85,88.76 87.62,89.35 87.62,90 L92.38,90 Z M101.14,90.91 C101.82,90.91 102.16,90.55 102.16,89.85 L102.16,81.9 L101.44,81.9 L101.44,89.68 C101.44,90.07 101.25,90.27 100.89,90.27 C100.49,90.27 100.06,90.25 99.62,90.22 L99.78,90.91 L101.14,90.91 Z M94.01,90.9 C96.23,89.77 97.59,87.79 98.08,84.97 L98.08,84.33 L95.7,84.33 C95.82,83.9 95.91,83.44 95.98,82.96 L98.57,82.96 L98.57,82.26 L93.72,82.26 L93.72,82.96 L95.27,82.96 C95.06,84.6 94.46,85.88 93.48,86.82 L93.82,87.49 C94.09,87.24 94.34,86.96 94.57,86.66 C95.23,87.02 95.81,87.41 96.32,87.83 C95.68,88.87 94.79,89.68 93.66,90.26 L94.01,90.9 Z M100.01,88.98 L100.01,82.66 L99.31,82.66 L99.31,88.98 L100.01,88.98 Z M96.65,87.23 C96.15,86.84 95.58,86.47 94.93,86.11 C95.13,85.77 95.31,85.41 95.47,85.01 L97.39,85.01 C97.23,85.82 96.98,86.56 96.65,87.23 Z M110.56,90.92 C111.43,90.92 111.92,90.51 112.03,89.7 C112.15,88.91 112.21,86.79 112.21,83.35 L108.55,83.35 C108.72,82.88 108.86,82.38 108.97,81.86 L108.25,81.77 C107.95,83.19 107.37,84.4 106.52,85.39 L107,86.01 C107.5,85.43 107.92,84.78 108.26,84.05 L111.51,84.05 C111.49,87.08 111.44,88.88 111.34,89.46 C111.25,89.98 110.95,90.24 110.43,90.24 C110.03,90.24 109.56,90.22 109.02,90.2 L109.2,90.88 C109.84,90.9 110.29,90.92 110.56,90.92 Z M103.56,89.76 C104.68,89.52 105.73,89.21 106.7,88.84 L106.7,88.09 C106.24,88.27 105.78,88.42 105.3,88.56 L105.3,85.19 L106.33,85.19 L106.33,84.49 L105.3,84.49 L105.3,81.87 L104.57,81.87 L104.57,84.49 L103.47,84.49 L103.47,85.19 L104.57,85.19 L104.57,88.75 C104.18,88.85 103.78,88.93 103.36,89 L103.56,89.76 Z M109.61,86.97 L110.11,86.47 C109.68,86.01 109.15,85.54 108.51,85.08 L108.05,85.53 C108.71,86.04 109.23,86.52 109.61,86.97 Z M107.51,89.43 C108.78,88.98 109.84,88.46 110.7,87.87 L110.51,87.2 C109.59,87.81 108.49,88.33 107.21,88.75 L107.51,89.43 Z M122.05,86.13 L122.53,85.56 C121.04,84.67 120.01,83.45 119.43,81.91 L118.81,82.26 C119.42,83.84 120.5,85.13 122.05,86.13 Z M113.83,86.17 C114.66,85.61 115.33,85.04 115.83,84.46 C116.3,83.93 116.77,83.25 117.24,82.42 L116.61,82.04 C116.21,82.8 115.77,83.45 115.29,84.01 C114.74,84.64 114.12,85.15 113.44,85.54 L113.83,86.17 Z M114.37,91.03 C115.39,90.46 116.16,89.82 116.67,89.1 C117.1,88.46 117.43,87.59 117.67,86.5 L120.16,86.5 C120.11,88.06 120,89.07 119.82,89.55 C119.65,90.01 119.3,90.24 118.76,90.24 C118.24,90.24 117.69,90.23 117.11,90.21 L117.31,90.92 L119.13,90.92 C119.63,90.89 119.99,90.73 120.21,90.44 C120.44,90.14 120.6,89.6 120.7,88.84 C120.8,88.07 120.86,87.06 120.89,85.81 L114.92,85.81 L114.92,86.5 L116.94,86.5 C116.73,87.44 116.42,88.2 116,88.78 C115.53,89.38 114.83,89.93 113.91,90.43 L114.37,91.03 Z" id="左2右2混排2列均分" fill="#000000" fill-rule="nonzero"></path>
        <g id="编组-2" transform="translate(29.000000, 13.000000)">
            <g id="编组" transform="translate(25.000000, 25.500000) rotate(90.000000) translate(-25.000000, -25.500000) translate(0.000000, 1.000000)" fill="#DDDDDD">
                <rect id="矩形" x="0" y="0" width="23.5" height="49"></rect>
                <rect id="矩形" x="25.6666667" y="0" width="23.5" height="49"></rect>
            </g>
            <text id="1" font-family="PingFangSC-Regular, PingFang SC" font-size="10" font-weight="normal" fill="#000000">
                <tspan x="22.6616667" y="14.5">1</tspan>
            </text>
            <text id="3" font-family="PingFangSC-Regular, PingFang SC" font-size="10" font-weight="normal" fill="#000000">
                <tspan x="21.6666667" y="42.5">3</tspan>
            </text>
        </g>
        <g id="编组-2" transform="translate(80.000000, 13.000000)">
            <g id="编组" transform="translate(25.000000, 25.500000) rotate(90.000000) translate(-25.000000, -25.500000) translate(0.000000, 1.000000)" fill="#DDDDDD">
                <rect id="矩形" x="0" y="0" width="23.5" height="49"></rect>
                <rect id="矩形" x="25.6666667" y="0" width="23.5" height="49"></rect>
            </g>
            <text id="2" font-family="PingFangSC-Regular, PingFang SC" font-size="10" font-weight="normal" fill="#000000">
                <tspan x="21.6666667" y="14.5">2</tspan>
            </text>
            <text id="4" font-family="PingFangSC-Regular, PingFang SC" font-size="10" font-weight="normal" fill="#000000">
                <tspan x="21.6666667" y="42.5">4</tspan>
            </text>
        </g>
    </g>
</svg>