<?xml version="1.0" encoding="UTF-8"?>
<svg width="160px" height="96px" viewBox="0 0 160 96" version="1.1" xmlns="http://www.w3.org/2000/svg" xmlns:xlink="http://www.w3.org/1999/xlink">
    <title>imgs01</title>
    <g id="imgs01" stroke="none" stroke-width="1" fill="none" fill-rule="evenodd">
        <rect fill="#FFFFFF" x="0" y="0" width="160" height="96"></rect>
        <path d="M156,0 C158.209139,0 160,1.790861 160,4 L160,71 C160,73.209139 158.209139,75 156,75 L4,75 C1.790861,75 0,73.209139 0,71 L0,4 C0,1.790861 1.790861,0 4,0 L156,0 Z M156,1 L4,1 C2.40231912,1 1.09633912,2.24891996 1.00509269,3.82372721 L1,4 L1,71 C1,72.5976809 2.24891996,73.9036609 3.82372721,73.9949073 L4,74 L156,74 C157.597681,74 158.903661,72.75108 158.994907,71.1762728 L159,71 L159,4 C159,2.40231912 157.75108,1.09633912 156.176273,1.00509269 L156,1 Z" id="矩形" fill="#EEEEEE" fill-rule="nonzero"></path>
        <rect id="矩形" fill="#DDDDDD" x="29" y="13" width="49" height="49"></rect>
        <path d="M66.38,90 L66.38,89.27 L62.63,89.27 C62.76,88.79 63.28,88.24 64.19,87.63 C64.93,87.13 65.42,86.74 65.67,86.48 C66.13,85.98 66.37,85.42 66.37,84.8 C66.37,84.18 66.15,83.67 65.73,83.29 C65.3,82.91 64.76,82.72 64.1,82.72 C63.38,82.72 62.79,82.96 62.35,83.44 C61.91,83.91 61.68,84.55 61.68,85.35 L62.5,85.35 C62.51,84.72 62.66,84.24 62.94,83.92 C63.2,83.58 63.58,83.42 64.07,83.42 C64.53,83.42 64.9,83.54 65.16,83.78 C65.42,84.02 65.55,84.35 65.55,84.79 C65.55,85.25 65.36,85.68 65,86.07 C64.81,86.27 64.44,86.56 63.88,86.96 C63.12,87.48 62.61,87.91 62.33,88.23 C61.85,88.76 61.62,89.35 61.62,90 L66.38,90 Z M75.14,90.91 C75.82,90.91 76.16,90.55 76.16,89.85 L76.16,81.9 L75.44,81.9 L75.44,89.68 C75.44,90.07 75.25,90.27 74.89,90.27 C74.49,90.27 74.06,90.25 73.62,90.22 L73.78,90.91 L75.14,90.91 Z M68.01,90.9 C70.23,89.77 71.59,87.79 72.08,84.97 L72.08,84.33 L69.7,84.33 C69.82,83.9 69.91,83.44 69.98,82.96 L72.57,82.96 L72.57,82.26 L67.72,82.26 L67.72,82.96 L69.27,82.96 C69.06,84.6 68.46,85.88 67.48,86.82 L67.82,87.49 C68.09,87.24 68.34,86.96 68.57,86.66 C69.23,87.02 69.81,87.41 70.32,87.83 C69.68,88.87 68.79,89.68 67.66,90.26 L68.01,90.9 Z M74.01,88.98 L74.01,82.66 L73.31,82.66 L73.31,88.98 L74.01,88.98 Z M70.65,87.23 C70.15,86.84 69.58,86.47 68.93,86.11 C69.13,85.77 69.31,85.41 69.47,85.01 L71.39,85.01 C71.23,85.82 70.98,86.56 70.65,87.23 Z M84.56,90.92 C85.43,90.92 85.92,90.51 86.03,89.7 C86.15,88.91 86.21,86.79 86.21,83.35 L82.55,83.35 C82.72,82.88 82.86,82.38 82.97,81.86 L82.25,81.77 C81.95,83.19 81.37,84.4 80.52,85.39 L81,86.01 C81.5,85.43 81.92,84.78 82.26,84.05 L85.51,84.05 C85.49,87.08 85.44,88.88 85.34,89.46 C85.25,89.98 84.95,90.24 84.43,90.24 C84.03,90.24 83.56,90.22 83.02,90.2 L83.2,90.88 C83.84,90.9 84.29,90.92 84.56,90.92 Z M77.56,89.76 C78.68,89.52 79.73,89.21 80.7,88.84 L80.7,88.09 C80.24,88.27 79.78,88.42 79.3,88.56 L79.3,85.19 L80.33,85.19 L80.33,84.49 L79.3,84.49 L79.3,81.87 L78.57,81.87 L78.57,84.49 L77.47,84.49 L77.47,85.19 L78.57,85.19 L78.57,88.75 C78.18,88.85 77.78,88.93 77.36,89 L77.56,89.76 Z M83.61,86.97 L84.11,86.47 C83.68,86.01 83.15,85.54 82.51,85.08 L82.05,85.53 C82.71,86.04 83.23,86.52 83.61,86.97 Z M81.51,89.43 C82.78,88.98 83.84,88.46 84.7,87.87 L84.51,87.2 C83.59,87.81 82.49,88.33 81.21,88.75 L81.51,89.43 Z M96.05,86.13 L96.53,85.56 C95.04,84.67 94.01,83.45 93.43,81.91 L92.81,82.26 C93.42,83.84 94.5,85.13 96.05,86.13 Z M87.83,86.17 C88.66,85.61 89.33,85.04 89.83,84.46 C90.3,83.93 90.77,83.25 91.24,82.42 L90.61,82.04 C90.21,82.8 89.77,83.45 89.29,84.01 C88.74,84.64 88.12,85.15 87.44,85.54 L87.83,86.17 Z M88.37,91.03 C89.39,90.46 90.16,89.82 90.67,89.1 C91.1,88.46 91.43,87.59 91.67,86.5 L94.16,86.5 C94.11,88.06 94,89.07 93.82,89.55 C93.65,90.01 93.3,90.24 92.76,90.24 C92.24,90.24 91.69,90.23 91.11,90.21 L91.31,90.92 L93.13,90.92 C93.63,90.89 93.99,90.73 94.21,90.44 C94.44,90.14 94.6,89.6 94.7,88.84 C94.8,88.07 94.86,87.06 94.89,85.81 L88.92,85.81 L88.92,86.5 L90.94,86.5 C90.73,87.44 90.42,88.2 90,88.78 C89.53,89.38 88.83,89.93 87.91,90.43 L88.37,91.03 Z" id="2列均分" fill="#000000" fill-rule="nonzero"></path>
        <rect id="矩形" fill="#DDDDDD" x="80" y="13" width="49" height="49"></rect>
        <path d="M54.935,42 L54.935,34.86 L54.295,34.86 C54.055,35.13 53.775,35.37 53.435,35.59 C53.095,35.79 52.755,35.93 52.435,36.02 L52.435,36.84 C53.105,36.64 53.665,36.32 54.115,35.86 L54.115,42 L54.935,42 Z" id="1" fill="#000000" fill-rule="nonzero"></path>
        <path d="M107.38,42 L107.38,41.27 L103.63,41.27 C103.76,40.79 104.28,40.24 105.19,39.63 C105.93,39.13 106.42,38.74 106.67,38.48 C107.13,37.98 107.37,37.42 107.37,36.8 C107.37,36.18 107.15,35.67 106.73,35.29 C106.3,34.91 105.76,34.72 105.1,34.72 C104.38,34.72 103.79,34.96 103.35,35.44 C102.91,35.91 102.68,36.55 102.68,37.35 L103.5,37.35 C103.51,36.72 103.66,36.24 103.94,35.92 C104.2,35.58 104.58,35.42 105.07,35.42 C105.53,35.42 105.9,35.54 106.16,35.78 C106.42,36.02 106.55,36.35 106.55,36.79 C106.55,37.25 106.36,37.68 106,38.07 C105.81,38.27 105.44,38.56 104.88,38.96 C104.12,39.48 103.61,39.91 103.33,40.23 C102.85,40.76 102.62,41.35 102.62,42 L107.38,42 Z" id="2" fill="#000000" fill-rule="nonzero"></path>
    </g>
</svg>