<?xml version="1.0" encoding="UTF-8"?>
<svg width="128px" height="128px" viewBox="0 0 128 128" version="1.1" xmlns="http://www.w3.org/2000/svg" xmlns:xlink="http://www.w3.org/1999/xlink">
    <title>icon</title>
    <defs>
        <circle id="path-1" cx="58" cy="58" r="58"></circle>
    </defs>
    <g id="icon" stroke="none" stroke-width="1" fill="none" fill-rule="evenodd">
        <g id="beebee-logo" transform="translate(6.000000, 6.000000)">
            <mask id="mask-2" fill="white">
                <use xlink:href="#path-1"></use>
            </mask>
            <use id="椭圆_1" fill-opacity="0.8" fill="#FFB800" fill-rule="nonzero" xlink:href="#path-1"></use>
            <path d="M58,0 C25.9679307,0 0,25.9674286 0,58 C0,76.5750649 8.73314286,93.1088312 22.3151861,103.724087 L22.3151861,39.6709957 C22.3151861,34.8175758 26.249645,30.8831169 31.1030649,30.8831169 C35.956987,30.8831169 39.8909437,34.8175758 39.8909437,39.6709957 L39.8909437,43.3834978 L41.2146494,41.8061991 C44.3345974,38.0886753 49.8774892,37.6035844 53.5955152,40.7230303 C57.3135411,43.8429784 57.798632,49.3858701 54.6791861,53.1038961 L39.8909437,70.7268571 L39.8914459,76.2446407 C43.0410216,72.7204502 48.4428052,72.3126926 52.0890216,75.372381 C55.8070476,78.492329 56.2921385,84.0352208 53.1726926,87.7532468 L39.9381472,103.525229 L39.8909437,103.579463 L39.8909437,113.112554 C45.5895065,114.984121 51.6757403,116 58,116 C60.3320519,116 62.6304589,115.85839 64.8901991,115.590736 C64.6350996,114.767688 64.4970043,113.89342 64.4970043,112.987013 L64.4970043,30.1298701 C64.4970043,25.2764502 68.4314632,21.3419913 73.2848831,21.3419913 C78.1388052,21.3419913 82.0727619,25.2764502 82.0727619,30.1298701 L82.0727619,33.8428745 L83.3964675,32.2650736 C86.5164156,28.5475498 92.0593074,28.0624589 95.7773333,31.1819048 C99.4953593,34.3018528 99.9804502,39.8447446 96.8605022,43.5627706 L82.0727619,61.1857316 L82.0727619,66.7180779 C85.2218355,63.1878615 90.6226147,62.7700606 94.2708398,65.8312554 C97.9888658,68.9512035 98.4739567,74.4940952 95.3540087,78.2121212 L82.1199654,93.9841039 C82.1049004,94.0016797 82.088329,94.0167446 82.0727619,94.0343203 L82.0727619,110.781506 C102.089541,101.637091 116,81.4440519 116,58 C116,25.9674286 90.0325714,0 58,0" id="Fill-1" fill="#000000" mask="url(#mask-2)"></path>
        </g>
    </g>
</svg>